<?xml version="1.0" standalone="no"?>
<!DOCTYPE svg PUBLIC "-//W3C//DTD SVG 20010904//EN"
 "http://www.w3.org/TR/2001/REC-SVG-20010904/DTD/svg10.dtd">
<svg version="1.0" xmlns="http://www.w3.org/2000/svg"
 width="1176.000000pt" height="980.000000pt" viewBox="0 0 1176.000000 980.000000"
 preserveAspectRatio="xMidYMid meet">

<g transform="translate(0.000000,980.000000) scale(0.100000,-0.100000)"
fill="#ffff" stroke="none">
<path d="M6210 8469 c-205 -7 -378 -26 -570 -60 -1074 -193 -1899 -808 -2407
-1796 -247 -479 -397 -980 -468 -1563 -23 -183 -31 -620 -16 -791 24 -255 81
-540 160 -789 17 -52 29 -96 27 -97 -8 -8 -196 295 -265 427 -164 317 -267
629 -318 960 -25 161 -24 549 0 710 73 473 173 805 361 1195 158 327 345 603
573 847 72 77 82 115 38 144 -21 14 -30 14 -54 5 -48 -20 -242 -246 -376 -436
-401 -573 -667 -1348 -691 -2020 -29 -768 274 -1539 871 -2225 51 -58 114
-141 140 -185 436 -726 1098 -1210 1897 -1385 462 -101 1056 -105 1611 -10
628 108 1162 363 1541 736 33 32 87 78 120 103 369 270 698 689 892 1136 259
596 350 1321 254 2006 -189 1348 -1013 2467 -2125 2889 -284 107 -597 178
-865 195 -52 4 -104 7 -115 9 -11 1 -108 -1 -215 -5z m495 -174 c498 -80 900
-239 1270 -504 208 -148 462 -388 622 -587 404 -501 672 -1120 777 -1794 42
-272 54 -703 27 -950 -69 -622 -256 -1137 -568 -1562 -36 -49 -66 -88 -68 -88
-2 0 23 59 56 130 157 348 268 770 346 1315 23 166 27 222 27 445 0 271 -12
407 -60 668 -106 580 -350 1157 -671 1587 -156 208 -414 454 -578 550 -38 23
-47 25 -67 14 -30 -16 -38 -28 -38 -60 0 -23 16 -38 97 -95 297 -211 567 -545
772 -954 256 -511 393 -1041 417 -1605 8 -176 -4 -341 -46 -621 -116 -793
-337 -1358 -698 -1784 -165 -195 -657 -440 -1105 -549 -288 -71 -525 -99 -892
-107 -452 -10 -861 41 -1279 161 -626 180 -1166 482 -1618 906 -129 121 -151
153 -243 357 -375 836 -397 1792 -65 2792 319 960 933 1684 1740 2050 366 166
748 260 1240 304 105 9 508 -3 605 -19z m-2944 -5931 c233 -168 557 -344 833
-453 495 -196 983 -293 1541 -308 441 -11 878 37 1209 132 48 15 90 24 93 22
2 -3 -33 -20 -79 -37 -364 -141 -721 -212 -1218 -241 -935 -54 -1682 192
-2294 755 -90 82 -216 219 -186 201 8 -5 54 -37 101 -71z"/>
</g>
</svg>
