<?xml version="1.0" standalone="no"?>
<!DOCTYPE svg PUBLIC "-//W3C//DTD SVG 20010904//EN"
 "http://www.w3.org/TR/2001/REC-SVG-20010904/DTD/svg10.dtd">
<svg version="1.0" xmlns="http://www.w3.org/2000/svg"
 width="794.000000pt" height="794.000000pt" viewBox="0 0 794.000000 794.000000"
 preserveAspectRatio="xMidYMid meet">

<g transform="translate(0.000000,794.000000) scale(0.100000,-0.100000)"
fill="#ffff" stroke="none">
<path d="M3600 6379 c-465 -57 -989 -285 -1435 -623 -188 -143 -502 -441 -701
-667 -519 -589 -679 -1073 -469 -1419 76 -125 180 -201 330 -243 90 -25 351
-34 491 -18 285 34 627 138 906 277 120 60 108 64 128 -41 26 -133 114 -374
196 -536 25 -51 42 -95 37 -100 -9 -9 -276 -89 -413 -124 -146 -37 -351 -72
-499 -86 -570 -51 -1059 179 -1247 586 -136 295 -119 677 45 1003 23 45 39 82
36 82 -3 0 -27 -44 -54 -97 -169 -338 -192 -667 -70 -985 105 -271 385 -503
719 -597 379 -105 853 -57 1378 141 74 27 135 48 136 46 1 -1 27 -43 57 -93
30 -49 93 -142 140 -205 294 -394 641 -669 1184 -936 475 -233 914 -354 1289
-354 526 0 903 181 1155 552 122 182 192 451 176 683 -11 172 -21 178 -17 10
5 -171 -7 -269 -49 -396 -93 -282 -303 -525 -567 -658 -216 -109 -560 -162
-857 -132 -461 46 -1063 284 -1585 625 -417 273 -781 700 -983 1153 -208 465
-238 780 -106 1118 155 398 507 666 941 716 124 14 278 5 278 -17 0 -10 -8
-12 -32 -6 -67 15 -290 7 -353 -12 -223 -67 -371 -208 -431 -411 -29 -97 -24
-275 10 -390 38 -129 109 -268 224 -440 270 -405 648 -788 1042 -1054 436
-295 933 -508 1403 -603 147 -30 413 -32 522 -5 255 64 455 255 496 472 32
170 -21 375 -162 630 -244 441 -622 863 -1044 1166 -275 198 -598 366 -890
463 -60 20 -115 38 -122 41 -8 3 -6 20 7 64 24 76 50 250 50 334 0 199 -66
435 -169 606 -85 141 -228 284 -346 347 -60 32 -51 22 27 -30 215 -143 377
-410 434 -711 25 -139 16 -344 -24 -496 -83 -314 -283 -693 -533 -1010 -78
-100 -428 -459 -446 -459 -9 1 -77 90 -71 94 175 127 392 347 508 514 85 122
146 222 137 222 -3 0 -16 -17 -28 -37 -55 -92 -199 -272 -292 -366 -148 -149
-333 -294 -361 -284 -7 3 -39 44 -72 92 l-59 87 26 21 c14 12 68 56 120 99
197 161 422 412 573 641 76 116 211 356 203 363 -2 2 -30 -44 -61 -102 -185
-339 -466 -664 -783 -906 -51 -39 -98 -68 -105 -65 -7 2 -30 36 -50 74 l-38
69 90 78 c124 109 388 380 491 506 287 350 431 690 432 1025 1 146 -14 224
-63 331 -87 192 -229 316 -417 365 -92 23 -299 33 -413 18z m388 -54 c100 -24
171 -62 237 -129 235 -239 238 -645 8 -1048 -44 -76 -45 -77 -76 -70 -18 4
-102 7 -187 6 -126 0 -173 -5 -249 -24 -344 -83 -613 -291 -765 -590 -98 -192
-138 -359 -135 -565 l2 -120 -114 -57 c-249 -125 -497 -207 -784 -259 -177
-32 -522 -32 -574 1 -37 22 38 288 134 481 92 183 273 453 418 624 88 104 320
338 417 420 394 335 920 619 1306 706 71 16 149 24 274 28 l175 6 -105 9
c-280 21 -591 -59 -974 -251 -597 -300 -1080 -736 -1410 -1275 -159 -259 -245
-478 -262 -667 -7 -72 -7 -72 -33 -66 -14 4 -51 19 -81 33 -51 26 -57 32 -77
87 -56 156 -72 388 -39 575 48 270 193 566 445 908 89 120 367 400 544 547
463 384 1025 644 1527 705 98 12 298 4 378 -15z m127 -1362 c-58 -90 -202
-259 -347 -409 l-168 -171 -63 -5 c-35 -3 -84 -15 -109 -26 l-46 -20 -7 72
c-8 88 3 134 58 241 51 98 157 209 237 248 93 45 286 87 439 96 23 1 23 1 6
-26z m994 -189 c669 -276 1287 -810 1669 -1442 182 -300 259 -531 232 -696
-10 -64 -37 -153 -48 -160 -4 -2 -7 62 -7 142 -1 168 -17 246 -83 399 -100
229 -378 619 -588 823 l-77 75 93 -102 c181 -198 364 -462 485 -698 106 -208
142 -352 132 -530 -10 -165 -21 -202 -81 -260 -72 -71 -204 -136 -323 -160
l-33 -7 0 82 c0 188 -63 362 -233 642 -354 586 -913 1053 -1577 1319 -80 32
-144 62 -143 66 1 5 21 40 44 78 49 81 191 371 209 430 7 22 19 54 27 72 l13
32 102 -35 c57 -20 141 -51 187 -70z m-1541 -414 c-1 -5 -36 -39 -77 -75 -79
-69 -82 -69 -96 -8 -6 29 -3 33 27 49 18 10 56 23 83 30 64 16 67 16 63 4z
m1040 -156 c365 -137 721 -360 1042 -655 340 -311 669 -798 755 -1114 19 -68
31 -220 21 -259 -6 -26 -7 -26 -110 -26 -185 0 -463 60 -751 163 -437 155
-833 382 -1202 689 -125 104 -420 395 -478 472 l-29 39 59 51 c186 159 384
376 513 563 42 62 78 112 80 112 2 1 47 -15 100 -35z"/>
<path d="M4093 5723 c9 -2 23 -2 30 0 6 3 -1 5 -18 5 -16 0 -22 -2 -12 -5z"/>
<path d="M2455 5303 c-172 -107 -317 -224 -480 -387 -213 -213 -347 -392 -499
-664 -55 -98 -156 -305 -156 -319 0 -4 32 49 71 117 318 555 617 903 1054
1228 142 105 143 108 10 25z"/>
<path d="M5070 4086 c0 -3 9 -10 20 -16 11 -6 20 -8 20 -6 0 3 -9 10 -20 16
-11 6 -20 8 -20 6z"/>
<path d="M5125 4053 c6 -6 53 -39 105 -73 546 -363 950 -788 1177 -1240 35
-68 63 -120 63 -114 0 6 -31 73 -69 150 -238 479 -628 885 -1166 1214 -39 24
-81 50 -95 58 -14 9 -20 11 -15 5z"/>
<path d="M5920 5358 c-44 -30 -112 -133 -136 -205 -15 -47 -19 -88 -19 -218 0
-155 6 -197 42 -284 5 -11 -7 -13 -65 -9 -124 9 -198 64 -307 229 -69 105
-122 156 -201 195 -87 42 -208 42 -244 0 -9 -12 -4 -12 27 0 79 28 176 10 264
-49 51 -33 73 -58 126 -141 118 -181 208 -248 344 -254 70 -4 78 -6 88 -28 26
-57 135 -154 173 -154 7 0 -6 10 -30 21 -58 29 -142 134 -127 159 3 6 15 10
25 10 11 0 49 11 85 25 264 99 469 342 370 440 -46 47 -154 25 -244 -50 -37
-32 -38 -30 -7 32 58 115 54 198 -14 265 -31 31 -45 38 -77 38 -25 0 -53 -9
-73 -22z m129 -13 c29 -14 36 -25 52 -79 16 -53 -19 -151 -108 -303 -22 -38
-23 -44 -9 -49 11 -4 35 10 71 42 132 116 212 158 262 135 30 -14 30 -50 -1
-117 -58 -125 -288 -289 -448 -319 -33 -6 -36 -5 -47 27 -21 61 -32 214 -21
309 19 170 93 319 175 355 38 17 40 17 74 -1z"/>
<path d="M4537 5045 c-24 -50 -20 -58 4 -12 11 22 19 41 17 43 -3 2 -12 -12
-21 -31z"/>
<path d="M6710 4828 c-31 -33 -22 -53 24 -52 40 1 73 25 62 43 -4 6 -14 11
-22 11 -8 0 -14 5 -14 10 0 18 -29 11 -50 -12z m14 -20 c-5 -8 -2 -9 12 -4 10
5 28 10 39 13 l20 4 -20 -16 c-40 -32 -92 -32 -65 0 15 18 24 20 14 3z"/>
<path d="M6922 4703 c-23 -15 -42 -31 -42 -35 0 -4 21 6 47 23 28 17 49 25 51
19 2 -6 -4 -18 -14 -25 -16 -12 -17 -14 -3 -15 27 0 44 27 29 45 -17 20 -19
19 -68 -12z"/>
<path d="M3320 4689 c-7 -11 -10 -23 -7 -25 2 -2 9 7 15 21 14 30 7 33 -8 4z"/>
<path d="M6470 4639 c-12 -22 -20 -49 -18 -59 3 -17 6 -17 41 -5 68 23 101 71
57 82 -11 3 -20 9 -20 14 0 5 -9 9 -20 9 -13 0 -27 -14 -40 -41z m38 9 c-3
-12 4 -13 31 -5 5 1 10 -2 12 -8 3 -12 -58 -55 -77 -55 -19 0 -17 9 6 48 20
33 32 41 28 20z"/>
<path d="M6984 4651 c-5 -5 -25 -11 -44 -14 -34 -4 -34 -4 7 -5 23 -1 45 3 48
9 9 14 1 21 -11 10z"/>
<path d="M3285 4598 c-94 -313 13 -621 375 -1080 115 -145 425 -464 560 -575
222 -183 600 -454 784 -562 566 -332 1221 -480 1641 -370 214 56 332 163 380
344 24 93 18 104 -17 35 -50 -97 -154 -198 -259 -249 -270 -130 -577 -118
-1069 41 -802 260 -1505 748 -2033 1411 -181 227 -300 431 -347 597 -32 112
-37 283 -12 380 23 87 21 107 -3 28z"/>
<path d="M6674 4625 l-29 -26 34 16 c18 9 30 12 27 6 -4 -6 -1 -11 6 -11 7 0
20 -5 28 -10 22 -15 -5 -30 -45 -24 -28 3 -28 3 -5 -5 14 -5 33 -9 43 -10 25
-1 34 29 13 44 -9 7 -15 19 -14 26 5 24 -29 20 -58 -6z"/>
<path d="M6311 4551 c-27 -27 -53 -79 -46 -91 3 -6 29 -10 56 -10 56 0 73 18
45 49 -12 13 -13 20 -5 28 15 15 4 43 -16 43 -8 0 -24 -9 -34 -19z m31 -23
c-17 -17 -15 -25 9 -31 12 -3 19 -12 17 -19 -5 -15 -88 -24 -88 -9 0 14 61 83
68 76 3 -3 0 -11 -6 -17z"/>
<path d="M3088 4503 c-119 -204 -177 -437 -163 -658 11 -198 20 -192 20 16 0
188 2 212 27 310 31 121 75 237 123 327 43 78 37 82 -7 5z"/>
<path d="M6835 4501 c-3 -6 10 -8 32 -5 25 4 34 3 25 -4 -11 -8 -11 -10 1 -15
13 -5 27 11 27 29 0 8 -79 4 -85 -5z"/>
<path d="M6513 4466 l-28 -25 48 -21 c26 -12 51 -19 56 -16 4 3 8 24 8 46 0
37 -2 40 -28 40 -15 0 -41 -11 -56 -24z m57 -1 l-25 -15 23 -6 c22 -6 29 -19
14 -28 -4 -2 -26 3 -47 13 l-40 18 30 16 c17 9 39 16 50 16 18 0 17 -1 -5 -14z"/>
<path d="M6877 4448 c2 -5 13 -8 24 -8 10 0 19 3 19 8 0 4 -11 7 -24 7 -13 0
-22 -3 -19 -7z"/>
<path d="M6038 4433 c7 -3 16 -2 19 1 4 3 -2 6 -13 5 -11 0 -14 -3 -6 -6z"/>
<path d="M6178 4433 c7 -3 16 -2 19 1 4 3 -2 6 -13 5 -11 0 -14 -3 -6 -6z"/>
<path d="M851 3787 c-1 -48 48 -178 94 -248 154 -230 461 -359 920 -385 200
-11 483 27 681 92 92 30 276 105 271 110 -2 3 -21 -3 -43 -12 -60 -25 -228
-73 -334 -94 -297 -59 -541 -62 -845 -10 -393 67 -658 257 -730 523 -10 38
-14 44 -14 24z"/>
<path d="M2951 3634 c0 -11 3 -14 6 -6 3 7 2 16 -1 19 -3 4 -6 -2 -5 -13z"/>
<path d="M3342 3160 c157 -257 287 -427 467 -613 399 -410 846 -666 1401 -802
248 -60 574 -93 765 -76 l100 8 -80 2 c-514 9 -1121 185 -1566 453 -372 224
-720 545 -997 918 -88 118 -117 154 -90 110z"/>
<path d="M7071 2864 c0 -11 3 -14 6 -6 3 7 2 16 -1 19 -3 4 -6 -2 -5 -13z"/>
<path d="M7082 2820 c0 -14 2 -19 5 -12 2 6 2 18 0 25 -3 6 -5 1 -5 -13z"/>
</g>
</svg>
