<svg xmlns="http://www.w3.org/2000/svg" viewBox="0 0 64 64" id="church"><path d="M59.83,39.11,52.13,26.4a1,1,0,0,0-.86-.48H38.2V19.81s0,0,0-.08a1,1,0,0,0,0-.17.62.62,0,0,0-.07-.19.41.41,0,0,0,0-.08L33,11V8.21h1.15a1,1,0,0,0,0-2H33V5a1,1,0,0,0-2,0V6.21H29.85a1,1,0,1,0,0,2H31V11L26,19.29a1,1,0,0,0-.13.51.43.43,0,0,0,0,.11V38.63H6.8l6.49-10.71H22.8a1,1,0,0,0,0-2H12.73a1,1,0,0,0-.85.48L4.17,39.11A1,1,0,0,0,5,40.63H6.27v16a1,1,0,0,0,1,1H22.4V59a1,1,0,0,0,1,1H40.61a1,1,0,0,0,1-1V57.65H56.73a1,1,0,0,0,1-1v-16H59a1,1,0,0,0,.87-.51A1,1,0,0,0,59.83,39.11ZM32,13.2l3.49,5.72h-7Zm-4.2,7.72h8.4V39.44l-3.45-4a1,1,0,0,0-1.5,0l-3.45,4ZM20.29,48.06a1,1,0,1,0,1.51,1.31l.6-.69v7H8.27v-15H25.8v1.1ZM39.61,58H29.9V51.37a2.19,2.19,0,0,1,1.88-2.22,2.11,2.11,0,0,1,2.33,2.09V55a1,1,0,0,0,2,0V51.24a4.11,4.11,0,0,0-4.51-4.08,4.21,4.21,0,0,0-3.7,4.25V58H24.4V46.39L32,37.66l7.61,8.73Zm16.12-2.35H41.61v-7l.59.69a1,1,0,0,0,.76.34,1,1,0,0,0,.65-.24,1,1,0,0,0,.1-1.41L38.2,41.73v-1.1H55.73Zm1-17H38.2V27.92H50.71L57.2,38.63Zm-22-12.24A2.72,2.72,0,1,0,32,29.11,2.72,2.72,0,0,0,34.72,26.39Zm-3.44,0a.72.72,0,1,1,.72.72A.72.72,0,0,1,31.28,26.39ZM14.67,43a3.58,3.58,0,0,0-3.58,3.58v5.72a1,1,0,0,0,1,1h5.15a1,1,0,0,0,1-1V46.55A3.58,3.58,0,0,0,14.67,43Zm1.57,8.3H13.09V46.55a1.58,1.58,0,1,1,3.15,0Zm31.85,2h5.15a1,1,0,0,0,1-1V46.55a3.58,3.58,0,1,0-7.15,0v5.72A1,1,0,0,0,48.09,53.27Zm1-6.72a1.58,1.58,0,1,1,3.15,0v4.72H49.09Z"></path></svg>