<?xml version="1.0" encoding="UTF-8"?>
<svg version="1.1" xmlns="http://www.w3.org/2000/svg" width="16" height="16">
<path d="M0 0 C0.33 1.32 0.66 2.64 1 4 C2.98 4 4.96 4 7 4 C7.33 2.68 7.66 1.36 8 0 C12 4.24242424 12 4.24242424 12 7.5625 C10.8239412 10.42914332 9.32031952 11.97907654 7 14 C7 12.68 7 11.36 7 10 C5.02 10 3.04 10 1 10 C0.67 11.32 0.34 12.64 0 14 C-4.01801153 9.73847262 -4.01801153 9.73847262 -3.9375 6.4375 C-2.95492701 3.88281023 -1.76917954 2.07686294 0 0 Z " fill="#000000" transform="translate(4,1)"/>
</svg>
