<svg xmlns="http://www.w3.org/2000/svg" width="512" height="512" enable-background="new 0 0 512 512" viewBox="0 0 512 512" id="location-pin"><path d="M256.469,493.669c-0.001,0-0.001,0-0.003,0c-2.819-0.001-5.378-1.646-6.549-4.211
				c-6.297-13.799-18.184-37.661-31.949-65.292c-57.873-116.173-109.82-223.214-109.82-256.577
				c0-81.784,66.536-148.32,148.32-148.32c81.785,0,148.321,66.536,148.321,148.32c0,33.44-52.084,140.744-110.11,257.202
				c-13.629,27.353-25.398,50.974-31.662,64.672C261.846,492.025,259.287,493.669,256.469,493.669z M256.469,33.671
				c-73.842,0-133.917,60.075-133.917,133.918c0,32.737,67.799,168.838,108.309,250.154c9.978,20.029,18.974,38.088,25.613,51.858
				c6.579-13.63,15.462-31.461,25.314-51.233c40.618-81.52,108.601-217.959,108.601-250.779
				C390.388,93.746,330.312,33.671,256.469,33.671z"></path><path d="M256.469,251.67c-46.363,0-84.082-37.719-84.082-84.081c0-46.392,37.719-84.133,84.082-84.133
				c46.391,0,84.133,37.741,84.133,84.133C340.602,213.951,302.859,251.67,256.469,251.67z M256.469,97.858
				c-38.421,0-69.679,31.281-69.679,69.73c0,38.421,31.258,69.679,69.679,69.679c38.449,0,69.73-31.258,69.73-69.679
				C326.199,129.14,294.918,97.858,256.469,97.858z"></path></svg>