<svg xmlns="http://www.w3.org/2000/svg" viewBox="0 0 24 24" id="RingsLove"><path d="m16,9.4901c-1.5089,0-2.8956.5214-4,1.3873-1.1044-.8659-2.4911-1.3873-4-1.3873-3.584,0-6.5,2.916-6.5,6.5s2.916,6.5,6.5,6.5c1.5089,0,2.8956-.5214,4-1.3873,1.1044.8659,2.4911,1.3873,4,1.3873,3.584,0,6.5-2.916,6.5-6.5s-2.916-6.5-6.5-6.5Zm-8,12c-3.0327,0-5.5-2.4673-5.5-5.5s2.4673-5.5,5.5-5.5c1.2176,0,2.3403.4025,3.2525,1.0749-1.0836,1.1617-1.7525,2.715-1.7525,4.4251s.6689,3.2634,1.7525,4.4251c-.9122.6724-2.0349,1.0749-3.2525,1.0749Zm2.5-5.5c0-1.4562.5728-2.7783,1.5-3.7632.9272.9849,1.5,2.3071,1.5,3.7632s-.5728,2.7783-1.5,3.7632c-.9272-.9849-1.5-2.3071-1.5-3.7632Zm5.5,5.5c-1.2176,0-2.3403-.4025-3.2525-1.0749,1.0836-1.1617,1.7525-2.715,1.7525-4.4251s-.6689-3.2634-1.7525-4.4251c.9122-.6724,2.0349-1.0749,3.2525-1.0749,3.0322,0,5.5,2.4673,5.5,5.5s-2.4678,5.5-5.5,5.5Zm-5.103-12.7588c.2832.3071.6851.4834,1.103.4834s.8198-.1763,1.1035-.4834l2.6465-2.873c.5322-.5317.8027-1.2666.7422-2.0166-.0605-.7495-.4502-1.4341-1.0674-1.8789-.998-.7192-2.4487-.5674-3.3716.3545l-.0532.0537-.0537-.0537c-.9224-.9219-2.3711-1.0732-3.3716-.3545-.6172.4448-1.0059,1.1299-1.0664,1.8794s.2095,1.4844.7271,2.0015l2.6616,2.8877Zm-1.7378-5.957c.2505-.1802.5493-.2676.8555-.2676.4351,0,.8843.1777,1.2241.5176l.4072.4077c.1885.1875.5195.1875.708,0l.4067-.4077c.5791-.5801,1.4736-.6875,2.0801-.25.3848.2769.6172.6846.6543,1.1479.0371.457-.1279.9048-.4668,1.2437l-2.6606,2.8877c-.1914.208-.5439.208-.7354,0l-2.6758-2.9023c-.3237-.3237-.4883-.772-.4517-1.229.0376-.4634.27-.8711.6543-1.1479Z" fill="#ffffff" class="color000000 svgShape"></path></svg>