<svg xmlns="http://www.w3.org/2000/svg" viewBox="0 0 64 64" id="toasting"><path d="M13.91162,36.94416A6.77885,6.77885,0,0,0,17.819,45.52681l-2.99622,9.60632-3.5332-1.102-.29785.95508,8.02148,2.502L19.311,56.533l-3.53321-1.102,2.99994-9.61847A6.75338,6.75338,0,0,0,26.875,40.952l3.38477-17.07959-9.41114-2.93506Zm11.99024,3.78028A5.79121,5.79121,0,1,1,14.8418,37.31038L16.36694,33.792c1.54206,1.59162,3.42878,1.27552,5.11646.98761,1.91186-.32678,3.72156-.62847,5.30676,1.46137Zm3.20263-16.16455L27.03735,34.99318c-1.82006-1.85987-3.8789-1.51282-5.72241-1.19892-1.82019.311-3.27374.53852-4.50311-1.0285L21.40918,22.16Zm23.606,29.47119-3.5332,1.102L46.181,45.52681a6.77726,6.77726,0,0,0,3.89514-8.6139l-6.9248-15.97558-9.41114,2.93506,3.39209,17.11279a6.80354,6.80354,0,0,0,6.54493,5.02637,6.80692,6.80692,0,0,0,1.545-.199L48.22217,55.431,44.689,56.533l.29786.95508,8.02148-2.502ZM36.963,34.99257l-2.0675-10.43268,7.69531-2.40039,4.598,10.60534c-1.23022,1.56812-2.6828,1.34046-4.50378,1.02942C40.84253,33.47865,38.78351,33.13215,36.963,34.99257Zm3.93689,9.29876a5.72867,5.72867,0,0,1-2.79443-3.53369l-.8952-4.51721c1.58453-2.08911,3.39318-1.7876,5.30633-1.46082,1.68884.28925,3.57483.60474,5.11719-.98834L49.146,37.27913a5.79084,5.79084,0,0,1-8.2461,7.0122ZM36.2002,7.1009a2.69888,2.69888,0,0,0-3.78907.42237l-.437.54687-.38525-.48144A2.69575,2.69575,0,0,0,27.377,10.95442l4.59717,5.751,4.64893-5.81592A2.69875,2.69875,0,0,0,36.2002,7.1009Zm-.3584,3.16455-3.86768,4.83838L28.1582,10.3304a1.69572,1.69572,0,1,1,2.64942-2.11719l1.1665,1.45849,1.21826-1.52441a1.696,1.696,0,0,1,2.64942,2.11816Z"></path></svg>